<svg id="Layer_1" data-name="Layer 1" xmlns="http://www.w3.org/2000/svg" viewBox="0 0 65.54 46.36"><defs><style>.cls-1{fill:#1e1e1c;}.cls-2{fill:#3e4083;}</style></defs><title>smartgit</title><path class="cls-1" d="M40.41,48.3q2.93,0,2.93.52v.13a.76.76,0,0,1,0,.13l-.1.59a.22.22,0,0,1-.24.21l-.32,0-.44-.06-.73-.06q-.45,0-1.15,0a2,2,0,0,0-1.37.43,1.59,1.59,0,0,0-.46,1.23,1.88,1.88,0,0,0,.41,1.26,4.11,4.11,0,0,0,1,.85,14.37,14.37,0,0,0,1.34.71,6.91,6.91,0,0,1,1.34.82,4,4,0,0,1,1,1.21A3.7,3.7,0,0,1,44.06,58a3.29,3.29,0,0,1-.35,1.54,3.33,3.33,0,0,1-.94,1.12,4.25,4.25,0,0,1-1.38.69,5.8,5.8,0,0,1-1.67.23,10.45,10.45,0,0,1-1.25-.07,9.3,9.3,0,0,1-1-.17,3,3,0,0,1-.71-.24q-.26-.14-.26-.28a.34.34,0,0,1,0-.06l0-.13.24-.78A.23.23,0,0,1,37,59.7a.71.71,0,0,1,.24.05,3.48,3.48,0,0,0,1.1.35,8.55,8.55,0,0,0,1.48.12,3.3,3.3,0,0,0,1-.15,2.58,2.58,0,0,0,.84-.44,2.08,2.08,0,0,0,.8-1.7,2.19,2.19,0,0,0-.24-1.07,2.84,2.84,0,0,0-.64-.78,4.66,4.66,0,0,0-.89-.6l-1-.52q-.53-.26-1-.57a4.43,4.43,0,0,1-.89-.71,3.26,3.26,0,0,1-.64-1,3.39,3.39,0,0,1-.24-1.35,3.07,3.07,0,0,1,.26-1.3,2.71,2.71,0,0,1,.73-1A3.32,3.32,0,0,1,39,48.5,4.62,4.62,0,0,1,40.41,48.3Z" transform="translate(-33.76 -15.28)"/><path class="cls-1" d="M55.31,61.41a.27.27,0,0,1-.18-.07.22.22,0,0,1-.08-.17V54a1.66,1.66,0,0,0-.1-.71q-.1-.19-.5-.19a2.07,2.07,0,0,0-1.11.38,5.86,5.86,0,0,0-1.38,1.46v6.27a.22.22,0,0,1-.08.17.25.25,0,0,1-.17.07H50.62a.26.26,0,0,1-.18-.07.22.22,0,0,1-.08-.17V54a1.81,1.81,0,0,0-.1-.71q-.1-.19-.44-.19a1.57,1.57,0,0,0-.51.09,2.22,2.22,0,0,0-.55.3,6.13,6.13,0,0,0-.67.57q-.37.36-.88.9v6.27q0,.24-.26.24h-1q-.26,0-.26-.24v-9a.23.23,0,0,1,.26-.26h.59a.27.27,0,0,1,.22.14,1.65,1.65,0,0,1,.17.35,3.53,3.53,0,0,1,.13.44l.09.4A4.88,4.88,0,0,1,48.65,52a3.59,3.59,0,0,1,1.44-.3,1.58,1.58,0,0,1,1.23.4,2.1,2.1,0,0,1,.46,1.11,10.69,10.69,0,0,1,.85-.75,3.93,3.93,0,0,1,.74-.46,3.18,3.18,0,0,1,.7-.24,3.62,3.62,0,0,1,.72-.07,1.68,1.68,0,0,1,1.35.58,2.71,2.71,0,0,1,.5,1.79v7.09a.22.22,0,0,1-.08.17.25.25,0,0,1-.17.07Z" transform="translate(-33.76 -15.28)"/><path class="cls-1" d="M61.58,51.71a4.51,4.51,0,0,1,1.47.2,2,2,0,0,1,.88.57,2,2,0,0,1,.43.86,4.81,4.81,0,0,1,.11,1.07v3.8q0,.38,0,.78a7.16,7.16,0,0,0,.1.79,5.84,5.84,0,0,0,.18.75,2.75,2.75,0,0,0,.29.64q0,.24-.26.24H64.2a.79.79,0,0,1-.66-.35,1.73,1.73,0,0,1-.33-.7,2.6,2.6,0,0,1-1.09.94,3.84,3.84,0,0,1-1.59.3,2.85,2.85,0,0,1-1.2-.23,2.24,2.24,0,0,1-.79-.59,2.35,2.35,0,0,1-.44-.81,3,3,0,0,1-.14-.9,3.43,3.43,0,0,1,.37-1.67,2.82,2.82,0,0,1,1-1.06,4.72,4.72,0,0,1,1.57-.57,12.7,12.7,0,0,1,2-.21V54.22a2.9,2.9,0,0,0,0-.55.61.61,0,0,0-.21-.36,1,1,0,0,0-.48-.2,4.57,4.57,0,0,0-.84-.06,4,4,0,0,0-1.14.16,7.48,7.48,0,0,0-1.14.45l-.09,0-.07,0a.23.23,0,0,1-.21-.12l-.37-.78a.21.21,0,0,1-.05-.12q0-.16.28-.33a3.13,3.13,0,0,1,.75-.31,8.55,8.55,0,0,1,1.07-.23A7.8,7.8,0,0,1,61.58,51.71Zm1.31,5.08q-.66,0-1.27.11a3.6,3.6,0,0,0-1.09.3,1.94,1.94,0,0,0-.77.63,1.82,1.82,0,0,0-.29,1.08,1.52,1.52,0,0,0,.29,1,1.26,1.26,0,0,0,1,.35,2.32,2.32,0,0,0,.82-.13,1.87,1.87,0,0,0,.6-.36,2.15,2.15,0,0,0,.42-.5,3,3,0,0,0,.27-.59Z" transform="translate(-33.76 -15.28)"/><path class="cls-1" d="M67.17,51.9a.25.25,0,0,1,.21.12,1.14,1.14,0,0,1,.15.3,3.79,3.79,0,0,1,.1.38l.08.37a3.7,3.7,0,0,1,1.15-.84,4.1,4.1,0,0,1,1.79-.34.22.22,0,0,1,.24.24V53q0,.26-.24.26a5.81,5.81,0,0,0-.87.06,2.42,2.42,0,0,0-.74.23,2.34,2.34,0,0,0-.64.51,4,4,0,0,0-.58.87v6.27q0,.24-.26.24h-1q-.26,0-.26-.24v-9c0-.16.09-.24.26-.24Z" transform="translate(-33.76 -15.28)"/><path class="cls-1" d="M74.69,51.9H77a.22.22,0,0,1,.24.24V53q0,.26-.24.26h-2.3V59a6.31,6.31,0,0,0,0,.64.93.93,0,0,0,.1.37.34.34,0,0,0,.21.17,1.33,1.33,0,0,0,.34,0l.64,0,.4,0,.26-.05a1,1,0,0,1,.24,0q.16,0,.24.21l.17.59,0,.14a.58.58,0,0,1,0,.09c0,.1-.08.19-.24.24a3.24,3.24,0,0,1-.58.14,5.33,5.33,0,0,1-.68.06h-.56a2.64,2.64,0,0,1-1.2-.23,1.62,1.62,0,0,1-.66-.6,2.16,2.16,0,0,1-.29-.86,8,8,0,0,1-.06-1V53.22H71.85a.25.25,0,0,1-.17-.07.24.24,0,0,1-.08-.19v-.82a.22.22,0,0,1,.08-.18.27.27,0,0,1,.17-.06h1.25V49.29a.22.22,0,0,1,.24-.24h1.1a.22.22,0,0,1,.24.24Z" transform="translate(-33.76 -15.28)"/><path class="cls-1" d="M83.13,50.23a3.71,3.71,0,0,0-1.12.14,1.13,1.13,0,0,0-.66.63A4.23,4.23,0,0,0,81,52.42q-.08.94-.08,2.53t.1,2.59A4,4,0,0,0,81.4,59a1.14,1.14,0,0,0,.71.61,4.4,4.4,0,0,0,1.14.12h.65a3.62,3.62,0,0,0,.65-.08V56.24H83.28q-.66,0-.66-.54v-.87q0-.5.66-.5h2.51q1.11,0,1.11,1v5q0,.5-.88.89a7.43,7.43,0,0,1-2.78.38,6.27,6.27,0,0,1-2.18-.33,3.06,3.06,0,0,1-1.45-1.11,5.14,5.14,0,0,1-.8-2.05,17.37,17.37,0,0,1-.24-3.18,18.16,18.16,0,0,1,.23-3.12,5.3,5.3,0,0,1,.76-2.05A3,3,0,0,1,81,48.65a6,6,0,0,1,2.16-.34q.64,0,1.29.05a9.51,9.51,0,0,1,1.15.16,3.72,3.72,0,0,1,.82.25c.21.1.31.22.31.36a.59.59,0,0,1-.07.3l-.28.82a.44.44,0,0,1-.47.3,5.55,5.55,0,0,1-.89-.16A8.83,8.83,0,0,0,83.13,50.23Z" transform="translate(-33.76 -15.28)"/><path class="cls-1" d="M88.17,52.4q0-.5.66-.5h2q.66,0,.66.5v8.48q0,.52-.66.52h-1q-.68,0-.68-.52V53.73h-.35q-.66,0-.66-.54Zm2-4.53a1.55,1.55,0,0,1,1.11.4,1.29,1.29,0,0,1,0,1.92,1.55,1.55,0,0,1-1.11.4,1.6,1.6,0,0,1-1.08-.39,1.26,1.26,0,0,1,0-1.93A1.59,1.59,0,0,1,90.17,47.88Z" transform="translate(-33.76 -15.28)"/><path class="cls-1" d="M96.72,51.9h1.79q.64,0,.64.5v.78q0,.54-.64.54H96.72v5.14q0,.59.16.73a.53.53,0,0,0,.37.14l.5,0,.28,0,.19,0,.23,0a.84.84,0,0,1,.39.1.53.53,0,0,1,.25.36l.16.63a.94.94,0,0,1,.05.3c0,.13-.09.23-.28.3a3.38,3.38,0,0,1-.67.18,7.28,7.28,0,0,1-.79.1l-.64,0a3.21,3.21,0,0,1-1.38-.24,1.77,1.77,0,0,1-.76-.64,2.25,2.25,0,0,1-.32-.91,7.8,7.8,0,0,1-.07-1.05v-5H93.6a.77.77,0,0,1-.45-.15.46.46,0,0,1-.21-.39V52.4a.42.42,0,0,1,.21-.37.84.84,0,0,1,.45-.13h.78V49.67q0-.5.64-.5h1q.64,0,.64.5Z" transform="translate(-33.76 -15.28)"/><polygon class="cls-2" points="30.24 3.01 29.13 8.8 39.57 15.18 26.38 23.22 25.01 30.44 25.08 30.48 50.17 15.18 30.24 3.01"/><polygon class="cls-2" points="20.78 21.39 10.6 15.18 23.46 7.32 24.86 0 0 15.18 19.68 27.19 20.78 21.39"/></svg>